<svg xmlns="http://www.w3.org/2000/svg" xmlns:xlink="http://www.w3.org/1999/xlink" width="56" height="57" viewBox="0 0 56 57">
  <defs>
    <clipPath id="clip-path">
      <rect id="Rectangle_50" data-name="Rectangle 50" width="56" height="57" transform="translate(0 0)" fill="#fff"/>
    </clipPath>
    <clipPath id="clip-path-2">
      <rect id="Rectangle_49" data-name="Rectangle 49" width="56" height="57" transform="translate(0 0)" fill="rgba(0,0,0,0)"/>
    </clipPath>
  </defs>
  <g id="blue-a-with-diamond-logo" transform="translate(0 0)" style="isolation: isolate">
    <g id="Group_53" data-name="Group 53" transform="translate(0 0)" clip-path="url(#clip-path)">
      <g id="Group_52" data-name="Group 52">
        <g id="Group_51" data-name="Group 51" clip-path="url(#clip-path-2)">
          <g id="Group_50" data-name="Group 50" opacity="0.7">
            <g id="Group_49" data-name="Group 49">
              <g id="Group_48" data-name="Group 48" clip-path="url(#clip-path-2)">
                <path id="Path_12" data-name="Path 12" d="M52,56.989H4.61A4.626,4.626,0,0,1,0,52.349V4.64A4.626,4.626,0,0,1,4.61,0H52a4.626,4.626,0,0,1,4.61,4.64V52.349A4.626,4.626,0,0,1,52,56.989" transform="translate(0 -0.154)" fill="#fff"/>
              </g>
            </g>
          </g>
          <path id="Path_13" data-name="Path 13" d="M27.06,47.63l-.529-3.915H18.938l-.527,3.915H3.487L13.453,2.317H32.016L41.982,47.63ZM23.315,19.137A29.477,29.477,0,0,1,23,15.006h-.527a29.5,29.5,0,0,1-.318,4.132l-1.74,11.093h4.64Z" transform="translate(4.106 2.608)" fill="#2525c2"/>
          <path id="Path_14" data-name="Path 14" d="M.049.052,15.819,0,15.77,14.948,0,15Z" transform="translate(17.7 28.693) rotate(-45)" fill="#2525c2"/>
          <path id="Path_15" data-name="Path 15" d="M.031.031,9.548,0,9.517,9.517,0,9.548Z" transform="translate(19.957 22.446) rotate(-45)" fill="#fff"/>
        </g>
      </g>
    </g>
  </g>
</svg>
