<svg xmlns="http://www.w3.org/2000/svg" xmlns:xlink="http://www.w3.org/1999/xlink" width="320" height="325" viewBox="0 0 320 325">
  <defs>
    <clipPath id="clip-path">
      <rect id="Rectangle_56" data-name="Rectangle 56" width="246" height="256" fill="none"/>
    </clipPath>
  </defs>
  <g id="mysterious-box-question-background-graphic" transform="translate(-36 -1188)">
    <g id="background-for-mystery-box-graphic">
      <rect id="Rectangle_63" data-name="Rectangle 63" width="320" height="325" transform="translate(36 1188)" fill="#53c230"/>
    </g>
    <g id="mysterious-box-question-graphic" transform="translate(73 1223)">
      <g id="Group_60" data-name="Group 60" clip-path="url(#clip-path)">
        <g id="Group_59" data-name="Group 59">
          <g id="Group_58" data-name="Group 58" clip-path="url(#clip-path)">
            <g id="Group_57" data-name="Group 57" opacity="0.8">
              <g id="Group_56" data-name="Group 56">
                <g id="Group_55" data-name="Group 55" clip-path="url(#clip-path)">
                  <rect id="Rectangle_53" data-name="Rectangle 53" width="246" height="256" fill="#706b54"/>
                </g>
              </g>
            </g>
            <path id="Path_16" data-name="Path 16" d="M102.088,36.992a26.3,26.3,0,0,1,8.474-11.952,33.736,33.736,0,0,1,15.81-7.174,40.024,40.024,0,0,1,20.149,1.716,41.967,41.967,0,0,1,16.362,9.466A30.294,30.294,0,0,1,171.4,42.982a26.208,26.208,0,0,1-.312,15.206,22.53,22.53,0,0,1-5.687,9.538,32.889,32.889,0,0,1-8.089,5.8q-4.293,2.149-15.182,6.995a50.022,50.022,0,0,0-4.953,2.546,15.944,15.944,0,0,0-3.05,2.291,15.226,15.226,0,0,0-1.933,2.351q-.813,1.223-2.658,4.368-3.624,6.773-10.481,4.522a8.788,8.788,0,0,1-5.241-4.323q-1.679-3.153-.183-7.791A27.164,27.164,0,0,1,118.657,75,26.645,26.645,0,0,1,125.8,69.08a113.812,113.812,0,0,1,10.421-5.039q5.638-2.435,8.228-3.769a20.624,20.624,0,0,0,4.708-3.313,11.209,11.209,0,0,0,3.032-4.824,12.979,12.979,0,0,0-1.069-10.684,15.7,15.7,0,0,0-9.3-7.262q-7.545-2.475-12.348.2t-9.681,9.337q-4.854,7.055-11.366,4.918a9.169,9.169,0,0,1-5.6-4.861,8.857,8.857,0,0,1-.732-6.786m9.022,86.855a11.372,11.372,0,0,1-6.423-5.13,10.169,10.169,0,0,1-.656-8.675,10.337,10.337,0,0,1,5.382-6.348,10.639,10.639,0,0,1,8.365-.546,10.423,10.423,0,0,1,6.311,5.364,10.576,10.576,0,0,1,.585,8.305,10.128,10.128,0,0,1-5.54,6.6,10.856,10.856,0,0,1-8.024.428" transform="translate(48.5 8.471)" fill="#fff"/>
            <path id="Path_17" data-name="Path 17" d="M148.628,184.512H59.043A13.608,13.608,0,0,1,45.5,170.841V119.171A13.608,13.608,0,0,1,59.043,105.5h89.586a13.607,13.607,0,0,1,13.543,13.671v51.671a13.607,13.607,0,0,1-13.543,13.671" transform="translate(21.697 51.778)" fill="#c2462e"/>
            <path id="Path_18" data-name="Path 18" d="M113.9,112.355c-3.692,4.246-20.772,22.989-45.782,22.362-11.725-.294-25.158-4.845-25.106-8.945.064-5.057,20.593-5.528,51.69-19.38,3.251-1.448,26.149-11.649,25.106-14.908-.925-2.889-20.9-1.035-39.875,5.963-24.364,8.983-34.573,21.831-39.875,17.889-4.292-3.19-2.831-15.492,2.954-23.853,2.735-3.954,8.931-10.628,44.306-17.889,24.817-5.094,34.337-4.39,35.444-8.945,1.424-5.854-11.8-17.315-26.583-19.38-9.666-1.349-16.027,1.872-47.259,16.4C19.56,75.325,15.364,77.043,13.477,75.085c-4.435-4.6,5.074-28.212,23.63-38.76C56.762,25.15,78.283,33.348,79.935,27.38c1.136-4.1-7.876-12.1-17.722-14.908-13.423-3.825-21.621,3.939-38.4,0A48.849,48.849,0,0,1,12,8" transform="translate(5.722 3.926)" fill="none" stroke="#2525c2" stroke-miterlimit="10" stroke-width="7"/>
          </g>
        </g>
      </g>
    </g>
  </g>
</svg>
